<svg id="Layer_1" enable-background="new 0 0 512 512" height="512" viewBox="0 0 512 512" width="512" xmlns="http://www.w3.org/2000/svg" xmlns:xlink="http://www.w3.org/1999/xlink"><linearGradient id="SVGID_1_" gradientUnits="userSpaceOnUse" x1="0" x2="512" y1="256" y2="256"><stop offset="0" stop-color="#00f2fe"/><stop offset=".0208" stop-color="#03effe"/><stop offset=".2931" stop-color="#24d2fe"/><stop offset=".5538" stop-color="#3cbdfe"/><stop offset=".7956" stop-color="#4ab0fe"/><stop offset="1" stop-color="#4facfe"/></linearGradient><path d="m469.539 360.599c-12.87 0-25.74-4.721-36.002-14.162l-26.416-24.304c-5.116-4.708-12.813-4.684-17.902.058l-25.486 23.749c-20.328 18.943-52.175 18.944-72.503 0l-25.486-23.749c-5.088-4.74-12.784-4.766-17.902-.058l-26.416 24.303c-20.525 18.884-51.48 18.883-72.005 0l-26.559-24.436c-5.084-4.678-12.754-4.679-17.839 0l-26.559 24.435c-20.525 18.883-51.48 18.884-72.005 0-8.129-7.479-8.656-20.131-1.178-28.26 7.478-8.128 20.131-8.657 28.26-1.178 5.086 4.679 12.754 4.678 17.84 0l26.559-24.435c20.524-18.883 51.48-18.883 72.004 0l26.56 24.436c5.085 4.678 12.755 4.679 17.84 0l26.415-24.303c9.862-9.073 22.641-14.064 36-14.064h.172c13.422.043 26.236 5.12 36.082 14.295l25.486 23.749c5.12 4.771 12.844 4.771 17.964 0l25.486-23.749c9.846-9.175 22.66-14.251 36.082-14.294 13.404-.019 26.268 4.952 36.172 14.064l26.416 24.303c5.085 4.678 12.755 4.679 17.84 0 8.128-7.479 20.781-6.951 28.26 1.178s6.951 20.781-1.178 28.26c-10.262 9.441-23.132 14.162-36.002 14.162zm36.002-141.163c8.129-7.479 8.656-20.131 1.178-28.26s-20.131-8.657-28.26-1.178c-5.085 4.679-12.755 4.679-17.84 0l-26.416-24.303c-9.904-9.112-22.769-14.082-36.172-14.064-13.422.043-26.236 5.12-36.082 14.294l-25.486 23.749c-5.12 4.771-12.844 4.771-17.964 0l-25.486-23.749c-9.846-9.175-22.66-14.252-36.082-14.295-.057 0-.114 0-.172 0-13.36 0-26.139 4.991-36 14.064l-26.415 24.303c-5.085 4.679-12.755 4.679-17.84 0l-26.56-24.436c-20.524-18.883-51.48-18.882-72.004 0l-26.559 24.435c-5.086 4.678-12.754 4.679-17.84 0-8.128-7.479-20.782-6.951-28.26 1.178-7.479 8.128-6.951 20.781 1.178 28.26 20.524 18.883 51.479 18.883 72.005 0l26.559-24.435c5.085-4.679 12.755-4.679 17.839 0l26.56 24.436c20.524 18.883 51.479 18.883 72.005 0l26.416-24.303c5.118-4.708 12.814-4.682 17.902.058l25.486 23.749c20.329 18.944 52.176 18.943 72.503 0l25.486-23.749c5.089-4.742 12.786-4.765 17.902-.058l26.416 24.304c10.262 9.441 23.132 14.162 36.002 14.162 12.869.001 25.739-4.72 36.001-14.162z" fill="url(#SVGID_1_)"/></svg>