<?xml version="1.0" encoding="iso-8859-1"?>
<!-- Generator: Adobe Illustrator 19.0.0, SVG Export Plug-In . SVG Version: 6.00 Build 0)  -->
<svg version="1.1" id="Capa_1" xmlns="http://www.w3.org/2000/svg" xmlns:xlink="http://www.w3.org/1999/xlink" x="0px" y="0px"
	 viewBox="0 0 455.431 455.431" style="enable-background:new 0 0 455.431 455.431;" xml:space="preserve">
<path style="fill:#D34178;" d="M405.493,412.764c-69.689,56.889-287.289,56.889-355.556,0c-69.689-56.889-62.578-300.089,0-364.089
	s292.978-64,355.556,0S475.182,355.876,405.493,412.764z"/>
<path style="fill:#E84E89;" d="M229.138,313.209c-62.578,49.778-132.267,75.378-197.689,76.8
	c-48.356-82.489-38.4-283.022,18.489-341.333c51.2-52.622,211.911-62.578,304.356-29.867
	C377.049,112.676,330.116,232.142,229.138,313.209z"/>
<path style="fill:#FFFFFF;" d="M227.716,358.72c-8.533,0-15.644-5.689-15.644-14.222l-21.333-169.244
	c0-25.6-19.911-45.511-42.667-45.511c-24.178,0-42.667,19.911-42.667,42.667c0,8.533-7.111,15.644-15.644,15.644
	c-8.533,0-15.644-7.111-15.644-15.644c0-41.244,34.133-75.378,75.378-75.378s75.378,34.133,75.378,75.378l5.689,83.911l5.689-86.756
	c0-39.822,34.133-73.956,75.378-73.956s75.378,34.133,75.378,75.378c0,8.533-7.111,15.644-15.644,15.644
	c-8.533,0-15.644-7.111-15.644-15.644c0-24.178-19.911-42.667-42.667-42.667c-24.178,0-42.667,19.911-42.667,42.667l-21.333,170.667
	C243.36,351.609,236.249,358.72,227.716,358.72z"/>
<g>
</g>
<g>
</g>
<g>
</g>
<g>
</g>
<g>
</g>
<g>
</g>
<g>
</g>
<g>
</g>
<g>
</g>
<g>
</g>
<g>
</g>
<g>
</g>
<g>
</g>
<g>
</g>
<g>
</g>
</svg>
