<?xml version="1.0" encoding="iso-8859-1"?>
<!-- Generator: Adobe Illustrator 19.1.0, SVG Export Plug-In . SVG Version: 6.00 Build 0)  -->
<svg version="1.1" id="Capa_1" xmlns="http://www.w3.org/2000/svg" xmlns:xlink="http://www.w3.org/1999/xlink" x="0px" y="0px"
	 viewBox="0 0 459.008 459.008" style="enable-background:new 0 0 459.008 459.008;" xml:space="preserve">
<g>
	<path style="fill:#FFB600;" d="M441.57,233.799c-8.682-13.414-19.097-25.761-30.709-36.735
		c-6.112-5.776-12.396-11.368-19.05-16.522c-6.745-5.225-13.862-9.965-21.086-14.49c-7.286-4.563-14.847-8.833-22.625-12.505
		c-5.278-2.492-10.594-4.824-15.969-7.044c6.714-2.84,13.248-6.231,19.633-9.708c7.114-3.874,14.146-8.048,20.765-12.726
		c12.993-9.185,25.339-19.266,36.146-30.984c2.555-2.77,5.201-5.486,7.572-8.418c2.449-3.027,4.852-6.086,7.23-9.168
		c3.646-4.726,6.94-9.834,9.984-14.971c-1.731,0.922-3.433,1.897-5.135,2.87c-11.755,6.722-23.445,13.661-35.694,19.466
		c-12.717,6.026-25.464,12.042-38.736,16.771c-3.454,1.231-6.876,2.583-10.356,3.738c-3.502,1.162-7.037,2.23-10.543,3.379
		c-6.857,2.246-13.919,4.027-20.934,5.702c-0.608,0.145-1.218,0.281-1.826,0.424c7.463-7.589,14.176-15.953,20.098-24.725
		c4.586-6.792,8.398-14.157,11.822-21.586c3.355-7.278,6.232-14.966,8.135-22.759c3.484-14.268,5.478-29.152,3.356-43.808
		c-4.623,4.936-8.587,10.463-12.801,15.738c-5.08,6.359-9.884,12.951-15.04,19.248c-9.265,11.317-18.295,22.863-28.133,33.694
		c-5,5.504-9.793,11.231-15.003,16.539c-2.649,2.699-5.276,5.41-7.868,8.164c-2.501,2.658-5.247,5.098-7.785,7.726
		c-5.124,5.306-10.648,10.267-16.042,15.297c-2.058,1.919-4.113,3.85-6.175,5.773c-7.033,0.317-14.073,0.419-21.082,0.268
		c-3.137-0.067-6.272-0.179-9.406-0.319c-3.293-3.046-6.598-6.081-9.927-9.079c-5.548-4.998-10.804-10.366-16.081-15.647
		c-5.21-5.214-10.402-10.456-15.369-15.904c-5.049-5.537-10.29-10.952-15.083-16.715c-9.404-11.305-18.935-22.477-27.951-34.098
		c-4.461-5.75-8.92-11.525-13.514-17.171c-3.671-4.51-7.04-9.26-11.025-13.515c-0.158,1.09-0.269,2.187-0.369,3.283
		c-1.412,15.504,0.573,31.579,5.401,46.376c5.068,15.532,12.226,30.144,21.781,43.419c4.855,6.745,10.122,13.355,16.038,19.212
		c0.263,0.26,0.534,0.513,0.798,0.772c-4.233-0.998-8.447-2.074-12.628-3.264c-6.956-1.979-13.864-4.047-20.738-6.301
		c-6.864-2.251-13.605-4.917-20.305-7.607c-13.062-5.244-25.812-11.21-38.273-17.754c-6.026-3.165-12.014-6.399-17.944-9.744
		c-4.555-2.57-8.953-5.407-13.575-7.865c1.146,1.914,2.359,3.789,3.571,5.661c8.204,12.675,18.045,24.342,29.018,34.712
		c5.775,5.458,11.713,10.742,18.001,15.612c6.374,4.937,13.098,9.417,19.925,13.692c6.885,4.311,14.029,8.347,21.379,11.816
		c3.171,1.497,6.359,2.927,9.562,4.316c-1.256,0.497-2.512,0.99-3.767,1.495c-7.931,3.186-15.621,7.163-23.118,11.247
		c-7.529,4.1-14.97,8.517-21.975,13.468c-13.751,9.72-26.817,20.389-38.253,32.79c-2.704,2.932-5.504,5.806-8.014,8.908
		c-2.591,3.203-5.135,6.44-7.651,9.703c-3.859,5.002-7.344,10.408-10.566,15.844c1.832-0.975,3.633-2.008,5.435-3.038
		c12.44-7.114,24.811-14.458,37.775-20.6c13.458-6.377,26.948-12.744,40.993-17.749c3.656-1.303,7.277-2.733,10.959-3.956
		c3.706-1.23,7.447-2.36,11.158-3.576c7.257-2.377,14.73-4.262,22.155-6.035c15.142-3.616,30.469-6.472,45.944-8.264
		c15.733-1.822,31.717-2.652,47.551-2.312c15.775,0.339,31.536,1.52,47.143,3.865c15.251,2.291,30.444,5.299,45.283,9.521
		c7.361,2.094,14.672,4.283,21.946,6.668c7.264,2.382,14.398,5.204,21.489,8.05c13.824,5.549,27.316,11.863,40.504,18.789
		c6.377,3.349,12.715,6.772,18.99,10.312c4.821,2.72,9.475,5.723,14.366,8.323C444.137,237.764,442.853,235.781,441.57,233.799z"/>
	<path style="fill:#B26B26;" d="M275.887,74.761l28.114,17.458c16.756,10.405,19.444,33.708,5.497,47.654l-43.743,43.743
		c-20.021,20.021-52.483,20.021-72.504,0l-43.743-43.743c-13.947-13.947-11.259-37.249,5.497-47.654l28.114-17.458
		C211.527,57.122,247.481,57.122,275.887,74.761z"/>
	<path style="fill:#FFB600;" d="M416.926,342.579L416.926,342.579c14.756-59.923-22.352-120.338-82.471-134.271l-26.77-6.204
		l0.584,25.111c0,0,80.005,18.187,64.237,93.478C397.034,346.931,416.926,342.579,416.926,342.579z"/>
	<path style="fill:#FFB600;" d="M41.307,342.579L41.307,342.579c-14.756-59.923,22.352-120.338,82.471-134.271l26.77-6.204
		l-0.584,25.111c0,0-80.005,18.187-64.237,93.478C61.199,346.931,41.307,342.579,41.307,342.579z"/>
	<path style="fill:#CC521B;" d="M347.577,208.653l-64.57,64.56c-13.04,13.04-29.65,20.32-46.68,21.85
		c-4.52,0.42-9.08,0.42-13.6,0.01c-17.05-1.52-33.68-8.81-46.73-21.86l-64.56-64.56c-13.11-13.11-16.26-31.82-10.43-47.65
		c3.32-9.02,9.56-17.11,18.54-22.69l41.5-25.76c41.93-26.04,94.99-26.04,136.91,0l41.5,25.76c8.98,5.58,15.22,13.66,18.54,22.68
		C363.837,176.823,360.687,195.543,347.577,208.653z"/>
	<path style="fill:#E86B2D;" d="M357.997,160.993c-2.18,5.87-5.63,11.4-10.42,16.19l-64.57,64.57
		c-13.04,13.03-29.65,20.32-46.68,21.85c-4.52,0.42-9.08,0.42-13.6,0.01c-17.05-1.53-33.68-8.82-46.73-21.86l-64.56-64.57
		c-4.79-4.78-8.25-10.31-10.43-16.18c3.32-9.02,9.56-17.11,18.54-22.69l41.5-25.76c41.93-26.04,94.99-26.04,136.91,0l41.5,25.76
		C348.437,143.893,354.677,151.973,357.997,160.993z"/>
	<path style="fill:#E86B2D;" d="M312.894,451.036c11.375-24.893,25.741-50.963,55.39-71.447c-31.711-8.879-60.64,15.831-78.8,37.171
		c-4.477-22.68,4.131-49.745,24.649-70.264c29.76-29.76,73.297-34.474,97.241-10.529c23.945,23.945,19.231,67.481-10.529,97.241
		C374.612,459.442,337.682,466.201,312.894,451.036z"/>
	<path style="fill:#E86B2D;" d="M145.339,451.036c-11.374-24.893-25.741-50.963-55.39-71.447
		c31.711-8.879,60.641,15.831,78.8,37.171c4.477-22.68-4.131-49.745-24.649-70.264c-29.76-29.76-73.297-34.474-97.241-10.529
		c-23.945,23.945-19.231,67.481,10.529,97.241C83.621,459.442,120.551,466.201,145.339,451.036z"/>
	<g>
		<path style="fill:#89440B;" d="M329.328,420.16c9.366-14.539,21.515-28.522,38.956-40.571c-31.711-8.879-60.64,15.83-78.8,37.171
			C289.484,416.76,304.694,422.635,329.328,420.16z"/>
	</g>
	<g>
		<path style="fill:#89440B;" d="M89.949,379.589c17.441,12.049,29.59,26.033,38.956,40.571c24.635,2.475,39.844-3.4,39.844-3.4
			C150.589,395.42,121.66,370.71,89.949,379.589z"/>
	</g>
	<g>
		<circle style="fill:#4CA9BF;" cx="280.985" cy="274.602" r="18.659"/>
		<circle style="fill:#4CA9BF;" cx="178.023" cy="274.602" r="18.659"/>
	</g>
</g>
<g>
</g>
<g>
</g>
<g>
</g>
<g>
</g>
<g>
</g>
<g>
</g>
<g>
</g>
<g>
</g>
<g>
</g>
<g>
</g>
<g>
</g>
<g>
</g>
<g>
</g>
<g>
</g>
<g>
</g>
</svg>
