<?xml version="1.0" encoding="iso-8859-1"?>
<!-- Generator: Adobe Illustrator 19.0.0, SVG Export Plug-In . SVG Version: 6.00 Build 0)  -->
<svg version="1.1" id="Capa_1" xmlns="http://www.w3.org/2000/svg" xmlns:xlink="http://www.w3.org/1999/xlink" x="0px" y="0px"
	 viewBox="0 0 512 512" style="enable-background:new 0 0 512 512;" xml:space="preserve">
<path style="fill:#BC64FF;" d="M419.284,0h-30.905v512h30.905C470.278,512,512,470.278,512,419.284V92.716
	C512,41.722,470.278,0,419.284,0z"/>
<path style="fill:#CD8BFF;" d="M481.095,92.716v326.567c0,50.994-41.722,92.716-92.716,92.716H92.716
	C41.722,512,0,470.278,0,419.284V92.716C0,41.722,41.722,0,92.716,0h295.662C439.372,0,481.095,41.722,481.095,92.716z"/>
<g>
	<path style="fill:#FFFFFF;" d="M429.586,408.982H82.414c-11.379,0-20.604,9.224-20.604,20.604c0,11.379,9.224,20.604,20.604,20.604
		h347.171c11.379,0,20.604-9.224,20.604-20.604C450.189,418.206,440.965,408.982,429.586,408.982z"/>
	<path style="fill:#FFFFFF;" d="M82.414,378.076h112.268c3.073,0.089,6.145-0.518,9.005-1.803c5.455-2.45,9.579-7.153,11.297-12.88
		c1.872-6.239,0.683-12.994-3.204-18.22c-2.195-2.95-5.106-5.217-8.395-6.631c-43.158-20.332-71.007-64.188-71.007-111.902
		c0-68.165,55.457-123.622,123.622-123.622s123.622,55.457,123.622,123.622c0,47.736-27.873,91.608-71.061,111.928
		c-3.602,1.563-6.737,4.144-8.974,7.512c-3.818,5.75-4.501,13.035-1.822,19.397c2.171,5.157,6.347,9.21,11.568,11.225
		c2.391,0.923,4.908,1.383,7.42,1.383c0.209,0,0.418-0.003,0.627-0.009h112.205c11.379,0,20.604-9.224,20.604-20.604
		c0-11.379-9.224-20.604-20.604-20.604h-51.022c5.722-6.364,10.968-13.195,15.682-20.439c17.391-26.727,26.583-57.776,26.583-89.79
		c0-90.887-73.941-164.829-164.829-164.829S91.171,135.753,91.171,226.64c0,32.014,9.192,63.063,26.585,89.792
		c4.713,7.244,9.96,14.073,15.682,20.438H82.414c-11.379,0-20.604,9.224-20.604,20.604
		C61.811,368.852,71.035,378.076,82.414,378.076z"/>
</g>
<g>
</g>
<g>
</g>
<g>
</g>
<g>
</g>
<g>
</g>
<g>
</g>
<g>
</g>
<g>
</g>
<g>
</g>
<g>
</g>
<g>
</g>
<g>
</g>
<g>
</g>
<g>
</g>
<g>
</g>
</svg>
