<svg height="512pt" viewBox="-3 0 512 512.29749" width="512pt" xmlns="http://www.w3.org/2000/svg"><path d="m314.191406 284.007812c3.34375-2.117187 7.683594-1.792968 10.679688.796876 0 0-10.734375 28-.671875 86.085937-13.152344 7.765625-43.640625 19.3125-53.441407 30.964844-.40625-6.882813-4.5-88.1875 43.433594-117.847657zm0 0" fill="#9fc9d3"/><path d="m192.933594 228.253906c-3.347656 2.117188-7.683594 1.792969-10.679688-.792968 6.355469-37.238282 6.59375-75.257813.707032-112.570313 13.152343-7.769531 43.605468 7.167969 53.40625-4.484375.441406 6.882812 4.5 88.1875-43.433594 117.847656zm0 0" fill="#9fc9d3"/><path d="m182.253906 227.460938c-.175781-.179688-.355468-.265626-.53125-.441407-.410156-.253906-.769531-.585937-1.058594-.972656-.917968-1.1875-1.523437-2.582031-1.765624-4.0625-2.472657-15.976563-10.238282-42.902344-35.222657-54.375l.972657-.621094c15.890624-7.679687 31.953124-14.5625 45.109374-22.066406 3.617188-2.03125 7.238282-4.148437 10.855469-6.355469 10.066407 58.085938-18.359375 88.894532-18.359375 88.894532zm0 0" fill="#2fa8cc"/><path d="m324.871094 284.804688c.175781.175781.351562.261718.53125.441406.410156.25.769531.582031 1.058594.96875.914062 1.1875 1.523437 2.582031 1.765624 4.0625 2.472657 15.976562 10.238282 42.902344 35.222657 54.375l-.972657.621094c-15.890624 7.679687-31.957031 14.5625-45.109374 22.066406-3.617188 2.03125-7.238282 4.148437-10.855469 6.355468-10.066407-58.082031 18.359375-88.890624 18.359375-88.890624zm0 0" fill="#2fa8cc"/><path d="m369.839844 495.128906 4.589844-4.414062c11.121093-6.621094 36.457031-32.167969 46.875-40.375 54.996093 26.921875 78.386718 26.25 78.386718 26.25 1.984375 3.703125 1.140625 8.28125-2.027344 11.035156-44.402343 38.402344-127.824218 7.503906-127.824218 7.503906zm0 0" fill="#3f5c6c"/><path d="m406.472656 468.203125c17.921875-13.921875 33.152344-31.003906 44.933594-50.402344h.089844c1.234375 30.808594 27.894531 47.492188 44.046875 54.90625 1.824219.726563 3.304687 2.113281 4.148437 3.882813 0 0-38.222656 18.539062-93.21875-8.386719zm0 0" fill="#3b97d3"/><path d="m137.320312 17.167969-4.589843 4.414062c-11.121094 6.621094-27.628907 32.132813-38.046875 40.34375-54.996094-26.925781-87.214844-26.21875-87.214844-26.21875-1.984375-3.703125-1.140625-8.28125 2.027344-11.035156 44.402344-38.398437 127.824218-7.503906 127.824218-7.503906zm0 0" fill="#3f5c6c"/><path d="m100.6875 44.09375c-17.921875 13.925781-33.152344 31.007812-44.933594 50.402344h-.089844c-1.234374-30.804688-27.894531-47.492188-44.046874-54.90625-1.824219-.726563-3.304688-2.113282-4.148438-3.882813 0 0 38.222656-18.539062 93.21875 8.386719zm0 0" fill="#3b97d3"/><path d="m73.230469 224.175781c-.632813 8.964844-.542969 17.96875.265625 26.921875-.164063 9.777344.484375 19.550782 1.941406 29.222656 1.453125 9.738282-4.867188 18.945313-14.476562 21.097657-8.976563 2.328125-18.339844-2.09375-22.246094-10.507813-13.160156-29.507812-20.046875-61.433594-20.214844-93.746094-.34375-36.199218 9.472656-71.769531 28.335938-102.667968h.089843c11.78125-19.394532 27.011719-36.476563 44.933594-50.402344 10.179687-8.195312 20.882813-15.714844 32.042969-22.511719 27.761718-17.179687 60.535156-24.433593 92.953125-20.566406-25.070313 122.703125-141.0625 173.726563-143.625 223.160156zm0 0" fill="#2fa8cc"/><path d="m279.796875 31.203125c-.109375 1.027344-.34375 2.035156-.707031 3.003906-8.867188 27.957031-22.125 54.328125-39.28125 78.121094-1.050782 1.492187-2.199219 2.90625-3.441406 4.238281-10.246094 11.335938-22.335938 20.855469-35.753907 28.160156-3.617187 2.207032-7.238281 4.324219-10.855469 6.355469-13.15625 7.503907-29.21875 14.390625-45.109374 22.070313-29.839844 14.566406-59.324219 31.957031-68.769532 62.234375-1.578125 5.085937-2.382812 10.386719-2.382812 15.710937-.808594-8.953125-.898438-17.957031-.265625-26.921875 0 0 30.28125-188.734375 206.566406-192.972656zm0 0" fill="#3b97d3"/><path d="m76.796875 399.386719c12.5625 2.832031 57.117187 16.25 57.117187 64.90625 0 56.691406 67.972657 47.246093 67.972657 47.246093s-18.335938-27.78125-9.710938-85.035156c8.429688-56.027344-19.421875-47.246094-58.261719-66.144531-38.84375-18.902344-42.082031-37.226563-42.082031-37.226563-13.449219 16.363282-36.953125 20.207032-54.917969 8.976563l-.09375-.0625zm0 0" fill="#2fa8cc"/><path d="m36.820312 332.578125s-36.671874 37.800781-36.671874 66.144531c0 28.347656 45.84375 75.589844 45.84375 75.589844-5.140626-13.277344-1.484376-28.351562 9.171874-37.796875 18.332032-18.894531 27.503907-37.792969 18.332032-56.691406-10.347656-17.121094-22.65625-32.976563-36.675782-47.246094zm0 0" fill="#3f5c6c"/><path d="m211.03125 97.941406c-2.34375.007813-4.597656-.914062-6.269531-2.5625-1.625-1.679687-2.539063-3.925781-2.558594-6.265625.019531-2.3125.9375-4.53125 2.558594-6.179687 3.507812-3.355469 9.03125-3.355469 12.535156 0 1.625 1.648437 2.542969 3.867187 2.5625 6.179687-.015625.59375-.074219 1.183594-.175781 1.765625-.097656.554688-.277344 1.089844-.53125 1.589844-.191406.5625-.460938 1.097656-.792969 1.585938l-1.0625 1.324218c-.894531.753906-1.871094 1.40625-2.910156 1.945313-.546875.199219-1.105469.34375-1.679688.441406-.542969.148437-1.109375.207031-1.675781.175781zm0 0" fill="#2c2f38"/><path d="m433.890625 288.121094c.636719-8.964844.546875-17.96875-.261719-26.921875.164063-9.777344-.484375-19.550781-1.945312-29.21875-1.449219-9.742188 4.871094-18.949219 14.480468-21.097657 8.976563-2.332031 18.339844 2.089844 22.242188 10.503907 13.164062 29.507812 20.050781 61.433593 20.21875 93.746093.34375 36.199219-9.472656 71.769532-28.339844 102.667969h-.085937c-11.785157 19.398438-27.011719 36.480469-44.933594 50.402344-10.179687 8.195313-20.882813 15.714844-32.042969 22.511719-27.765625 17.179687-60.535156 24.433594-92.957031 20.570312 42.761719-122.742187 141.066406-173.726562 143.625-223.164062zm0 0" fill="#2fa8cc"/><path d="m227.328125 481.09375c.109375-1.027344.34375-2.035156.703125-3 8.867188-27.960938 22.128906-54.332031 39.285156-78.125 1.050782-1.488281 2.199219-2.90625 3.441406-4.238281 10.257813-11.335938 22.355469-20.859375 35.789063-28.160157 3.617187-2.207031 7.238281-4.324218 10.855469-6.355468 13.152344-7.503906 29.21875-14.390625 45.109375-22.070313 29.835937-14.5625 59.320312-31.953125 68.765625-62.234375 1.582031-5.085937 2.386718-10.382812 2.386718-15.710937.808594 8.953125.898438 17.957031.261719 26.921875 0 0-21.449219 179.871094-206.597656 192.972656zm0 0" fill="#3b97d3"/><path d="m430.324219 112.914062c-12.558594-2.835937-57.121094-16.253906-57.121094-64.910156 0-56.691406-67.972656-47.246094-67.972656-47.246094s18.335937 27.78125 9.710937 85.035157c-8.429687 56.03125 19.417969 47.246093 58.21875 66.144531 38.796875 18.902344 42.089844 37.226562 42.089844 37.226562 13.460938-16.378906 36.992188-20.210937 54.957031-8.949218l.089844.097656zm0 0" fill="#2fa8cc"/><path d="m470.296875 179.71875s36.679687-37.800781 36.679687-66.144531-45.84375-75.589844-45.84375-75.589844c5.132813 13.277344 1.476563 28.347656-9.171874 37.800781-18.332032 18.898438-27.503907 37.789063-18.332032 56.6875 10.339844 17.125 22.648438 32.980469 36.667969 47.246094zm0 0" fill="#3f5c6c"/><path d="m296.09375 414.367188c2.34375-.011719 4.597656.90625 6.265625 2.550781 1.625 1.6875 2.542969 3.933593 2.5625 6.273437-.019531 2.316406-.9375 4.53125-2.5625 6.179688-3.503906 3.355468-9.027344 3.355468-12.535156 0-1.621094-1.648438-2.539063-3.863282-2.558594-6.179688.015625-.589844.074219-1.179687.175781-1.765625.097656-.550781.277344-1.085937.53125-1.585937.191406-.5625.460938-1.09375.792969-1.582032l1.058594-1.332031c.433593-.398437.90625-.75 1.414062-1.050781.464844-.347656.96875-.644531 1.5-.882812.546875-.199219 1.105469-.347657 1.679688-.441407.542969-.148437 1.109375-.210937 1.675781-.183593zm0 0" fill="#2c2f38"/><g fill="#9fc9d3"><path d="m227.328125 481.09375c172.578125-43.960938 206.5625-192.972656 206.5625-192.972656-2.558594 49.4375-23.039063 155.71875-143.625 223.164062-17.082031-1.742187-33.945313-5.234375-50.316406-10.417968-8.539063-2.535157-13.917969-10.960938-12.621094-19.773438zm0 0"/><path d="m279.796875 31.203125c-172.578125 43.960937-206.566406 192.972656-206.566406 192.972656 2.5625-49.433593 23.042969-155.71875 143.625-223.160156 17.085937 1.738281 33.945312 5.230469 50.320312 10.414063 8.539063 2.535156 13.917969 10.960937 12.621094 19.773437zm0 0"/></g></svg>