<svg id="Capa_1" enable-background="new 0 0 512 512" height="512" viewBox="0 0 512 512" width="512" xmlns="http://www.w3.org/2000/svg"><g><path d="m165.846 388.574h-84.844-65.372c-4.49 0-8.13-3.64-8.13-8.13 0-2.159.859-4.23 2.388-5.755l53.551-53.429c11.248-11.223 26.489-17.525 42.378-17.525h60.029z" fill="#c9aaf2"/><path d="m441 431-317.563-.004-42.436-42.421-.001-317.575-30-30v347.574c0 40.317 32.121 72.426 72.437 72.426h347.563z" fill="#efedff"/><g><path d="m123.437 430.996v65.374c0 4.49 3.64 8.13 8.13 8.13 2.159 0 4.23-.859 5.755-2.388l53.429-53.551c11.223-11.248 17.525-26.489 17.525-42.378v-60.035h-84.84z" fill="#e9dcfa"/></g><g><path d="m298.274 202.135c-3.682-33.195-19.439-63.854-44.368-86.328-25.137-22.662-57.594-35.142-91.394-35.142-28.086 0-55.067-7.745-78.666-22.494 6.681-15.016 2.378-33.181-11.328-43.46-14.755-11.067-35.233-9.107-47.663 3.903-12.285 12.599-18.537 29.832-17.17 47.407 1.38 17.729 10.39 33.89 24.721 44.34 38.035 27.737 83.025 42.397 130.106 42.397 32.923 0 60.484 24.645 64.109 57.327 2.096 18.88 11.576 36.601 25.144 50.147l50.493-50.493c-2.143-2.142-3.682-4.889-3.984-7.604z" fill="#976bcf"/><path d="m497.289 439.482c-10.28-13.707-28.445-18.009-43.461-11.328-14.749-23.6-22.494-50.581-22.494-78.667 0-33.799-12.479-66.256-35.142-91.393-22.474-24.93-53.132-40.687-86.327-44.369-2.715-.301-5.462-1.841-7.606-3.985l-50.493 50.493c13.683 13.661 31.522 23.078 50.148 25.145 32.682 3.625 57.327 31.187 57.327 64.109 0 47.082 14.66 92.072 42.397 130.107 10.45 14.331 26.611 23.341 44.34 24.721 17.575 1.367 34.808-4.885 47.407-17.169 13.012-12.431 14.972-32.909 3.904-47.664z" fill="#b28ae4"/></g><g><g><path d="m357.587 133.789-234.15 234.149v50.496h12.656l253.067-253.072z" fill="#676fb2"/></g><g><path d="m136.05 375.948 231.849-231.847-21.213-21.213-265.684 265.686c.325 23.321 19.186 42.096 42.436 42.421l12.656-12.562c-11.717-11.715-11.76-30.768-.044-42.485z" fill="#4c5699"/></g></g><g><g><path d="m472.587 9.915-76.568 48.284v126.735l23.305 20 82.761-165.522c9.449-18.898-10.599-38.947-29.498-29.497z" fill="#e9dcfa"/></g><path d="m472.587 9.915-165.522 82.761c-18.111 9.056-16.232 35.487 2.978 41.89l50.545 16.844 16.846 50.546c6.402 19.209 32.834 21.088 41.89 2.978-33.309-67.88-10.823-154.891 53.263-195.019z" fill="#c9aaf2"/></g><g><path d="m361.496 87.402c-2.93-2.928-7.678-2.928-10.607 0l-8.485 8.485c-2.929 2.93-2.929 7.678 0 10.607 1.465 1.464 3.385 2.196 5.304 2.196s3.839-.732 5.304-2.196l8.485-8.485c2.927-2.929 2.927-7.677-.001-10.607z"/><path d="m410.809 171.794c1.919 0 3.839-.732 5.304-2.196l8.485-8.485c2.929-2.93 2.929-7.678 0-10.607-2.93-2.928-7.678-2.928-10.607 0l-8.485 8.485c-2.929 2.93-2.929 7.678 0 10.607 1.464 1.464 3.384 2.196 5.303 2.196z"/><path d="m391.65 149.684c.67 0 1.343-.023 2.017-.069 4.132-.283 7.252-3.863 6.969-7.996-.283-4.132-3.873-7.235-7.996-6.969-4.142.282-8.201-1.231-11.129-4.158-2.928-2.929-4.444-6.985-4.159-11.129.284-4.133-2.836-7.713-6.968-7.997-4.146-.266-7.712 2.836-7.997 6.968-.582 8.471 2.521 16.768 8.518 22.765 5.517 5.516 12.984 8.585 20.745 8.585z"/><path d="m503.29 434.982c-10.896-14.527-29.149-20.589-46.164-15.945-11.984-21.131-18.291-45.049-18.291-69.55 0-59.751-36.646-111.866-89.754-133.447l18.859-18.853 2.209 6.627c8.682 26.05 43.767 28.707 55.884 4.474l82.761-165.522c5.774-11.548 3.605-24.908-5.524-34.038-9.13-9.128-22.488-11.295-34.036-5.521l-165.523 82.761c-24.085 12.045-21.614 47.189 3.962 55.714l7.211 2.403-18.909 18.909c-9.044-22.239-23.473-41.85-42.241-57.219-3.201-2.621-8.013-2.448-10.708.691-2.759 3.213-2.313 8.047.949 10.705 18.611 15.162 32.501 34.952 40.379 57.443-13.713 13.713-30.076 30.076-47.521 47.521-1.346-4.267-2.279-8.57-2.758-12.876-4.047-36.486-34.812-64-71.562-64-45.485 0-88.947-14.163-125.688-40.958-13.727-10.009-21.825-25.956-21.825-43.044 0-20.951 13.894-46.257 35.92-46.257 15.409 0 28.52 12.416 28.52 28.576v.107c-.025 6.937-3.212 11.499-7.678 15.965-2.904 2.904-3.196 7.675-.378 10.663 2.915 3.092 7.783 3.146 10.766.164l2.872-2.872c23.518 13.465 50.178 20.562 77.491 20.562 20.248 0 39.663 4.587 57.706 13.633 3.703 1.853 8.208.358 10.066-3.344 1.855-3.703.359-8.21-3.344-10.066-19.864-9.959-42.144-15.223-64.429-15.223-24.505 0-48.426-6.309-69.558-18.296 7.535-27.935-13.717-54.869-42.034-54.869-30.813 0-50.92 31.984-50.92 61.257 0 21.657 10.199 42.194 27.987 55.164 5.055 3.687 10.231 7.146 15.513 10.382v203.756l-38.91 38.821c-2.917 2.911-4.59 6.943-4.59 11.063 0 8.619 7.012 15.631 15.63 15.631h28.219c3.487 38.368 33.576 68.578 72.088 72.077v28.219c0 8.618 7.012 15.63 15.63 15.63 4.12 0 8.153-1.673 11.065-4.591l38.821-38.909h66.574c4.107 0 7.688-3.165 7.811-7.271.127-4.247-3.278-7.729-7.497-7.729h-51.94c4.394-4.471 8.114-9.537 11.087-15.004l162.257.003c2.154 5.074 4.489 10.078 7.017 15.001h-98.106c-4.107 0-7.688 3.165-7.81 7.27-.127 4.248 3.278 7.73 7.496 7.73h106.855c3.236 5.282 6.695 10.458 10.381 15.513 12.86 17.637 33.319 27.986 55.146 27.986 17.824 0 35.034-6.942 47.842-19.431 15.914-15.203 17.944-39.96 4.724-57.586zm-459.79-53.908h-27.87c-.56 0-.84-.682-.445-1.076l28.315-28.251zm268.917-253.623c-12.898-4.299-14.192-21.968-1.996-28.067l165.521-82.761c12.441-6.224 25.672 6.961 19.436 19.436l-82.761 165.521c-6.083 12.164-23.755 10.94-28.066-1.994-.01-.03-16.081-48.251-16.816-50.459-.715-2.237-2.46-4.062-4.773-4.832zm-149.904 32.808c29.095 0 53.451 21.776 56.654 50.655.858 7.727 2.877 15.41 5.977 22.911-20.626 20.626-42.234 42.233-62.409 62.409h-56.918c-5.897 0-11.688.768-17.315 2.27 0-56.917 0-124.396-.001-150.501 23.594 8.087 48.505 12.256 74.012 12.256zm-74.012 153.94c5.572-1.959 11.375-2.965 17.315-2.965h41.918c-24.877 24.877-46.348 46.348-59.233 59.233.001-13.578.001-33.583 0-56.268zm27.437 138.877c-32.753-3.611-57.438-30.637-57.438-64.502v-253.336c4.922 2.528 9.927 4.863 15 7.017 0 35.571.001 237.604.002 246.321 0 .034 0 .069.001.104.352 25.248 19.024 45.408 42.435 49.174zm84.84-46.892c0 13.797-5.589 27.312-15.335 37.081-1.493 1.497-41.541 41.636-53.428 53.55-.396.396-1.077.116-1.077-.444v-62.266l69.84-69.814zm-80.271 17.136c-16.926-1.645-30.185-14.899-31.829-31.816 45.43-45.432 237.992-237.992 242.117-242.117l23.901 7.965c1.387 4.275 4.028 12.184 7.941 23.926zm92.964.176c1.505-5.625 2.306-11.447 2.306-17.312v-56.888l62.458-62.436c7.504 3.103 15.167 5.12 22.851 5.974 28.878 3.203 50.654 27.56 50.654 56.654 0 25.507 4.169 50.417 12.255 74.012zm274.68 58.279c-23.274 22.692-61.338 19.611-80.452-6.601-26.794-36.74-40.957-80.202-40.957-125.688 0-36.75-27.514-67.516-63.999-71.562-4.276-.475-8.559-1.407-12.815-2.752l47.516-47.499c51.857 18.153 86.391 66.544 86.391 121.813 0 27.313 7.097 53.973 20.562 77.492l-2.652 2.652c-2.904 2.904-3.196 7.675-.378 10.663 2.916 3.092 7.783 3.146 10.767.164 10.986-10.985 28.937-10.105 39.157 3.524 8.666 11.556 7.339 27.781-3.14 37.794z"/></g></g></svg>