<svg id="Layer_1" height="512" viewBox="0 0 512 512" width="512" xmlns="http://www.w3.org/2000/svg" data-name="Layer 1"><path d="m377 44.95c10.34 21.36 20.21 53.39 7.92 83.85 0 0-9.15 33.32-25.62 36.07-8.57 1.42-66.03 8.62-66.03 8.62l-.36.14a36.9 36.9 0 0 0 -21.12-21.32l77.44-7.95 15.56-15.56c-58.57-36.6 11.4-83.57 11.4-83.57z" fill="#00acea"/><path d="m350.3 426.03 17.03-1.55 1.12-.1a117.357 117.357 0 0 1 -2.75 31.11c-5.49 36.6-51.24 36.6-51.24 36.6-44.84-1.83-60.4-36.6-60.4-36.6-8.25-13.34-15.48-34.78-21.05-54.91 16.27 4.68 39.38 4.52 53.47.04-.71 2.74-1.46 5.21-2.22 7.28-6.41 17.39-1.83 54 19.22 59.49s49.41.91 44.83-41.18z" fill="#00efd1"/><path d="m297.45 237.82q.435 18.735.3 37.42c-20.92 6.79-55.86 7.05-80.13-.02h-.12c.12-12.47.55-24.96 1.18-37.51 24.16 7.03 57.84 6.8 78.77.11z" fill="#f4b844"/><path d="m220.84 202.57q.375-5.31.78-10.64l.16.01c24.24 7.07 52.9 6.82 73.8.05.17 2.83.32 5.66.47 8.49q.855 16.365 1.29 32.72c.04 1.54.08 3.08.11 4.62-20.93 6.69-54.61 6.92-78.77-.11.57-11.66 1.32-23.37 2.16-35.14z" fill="#fedb41"/><path d="m297.75 275.24q-.15 22.9-1.13 45.78c-20.92 6.77-53.72 7.01-77.96-.05l-.08.01c-.94-15.24-1.24-30.48-1.08-45.76h.12c24.27 7.07 59.21 6.81 80.13.02z" fill="#fedb41"/><path d="m295.24 186.45c.12 1.85.23 3.69.34 5.54-20.9 6.77-49.56 7.02-73.8-.05l-.16-.01c.13-1.82.27-3.65.41-5.48a36.481 36.481 0 0 1 1.7-11.01 36.854 36.854 0 0 1 17.34-21.06 36.355 36.355 0 0 1 30.72-2.07 36.9 36.9 0 0 1 21.12 21.32 36.362 36.362 0 0 1 2.33 12.82z" fill="#00efd1"/><path d="m296.62 321.02q-.555 13.26-1.38 26.49s-.77 7.08-2.1 16.64c-20.73 6.63-45.03 6.85-69.05-.1-1.92-8.97-2.97-14.71-2.97-14.71q-1.68-14.19-2.54-28.36l.08-.01c24.24 7.06 57.04 6.82 77.96.05z" fill="#f4b844"/><path d="m293.14 364.15c-1.57 11.22-3.9 25.86-6.66 36.47-14.09 4.48-37.2 4.64-53.47-.04-3.83-13.81-6.87-26.99-8.92-36.53 24.02 6.95 48.32 6.73 69.05.1z" fill="#fedb41"/><path d="m241.07 154.37v.01a36.854 36.854 0 0 0 -17.34 21.06s-62.46-9.15-71.03-10.57c-16.47-2.75-25.62-36.07-25.62-36.07-12.29-30.46-2.42-62.49 7.92-83.85l.81.28s69.97 46.97 11.4 83.57l15.56 15.56z" fill="#00acea"/><path d="m390.628 130.667c12.872-32.344 2.647-65.867-8.228-88.329a160.295 160.295 0 0 0 -15.616-26.1 6 6 0 0 0 -9.493 7.34 146.539 146.539 0 0 1 11.937 19.29c-9.5 7.213-34.207 28.353-33.806 52.9.208 12.719 6.936 24.1 20.015 33.9l-8.942 8.942-44.289 4.547c-.129-3.3-2.374-11.637-17.434-35.827a6 6 0 1 0 -10.187 6.342c7.108 11.418 14.972 25.854 15.612 29.586a6 6 0 0 0 .017 1.13l-17.674 1.812a42.228 42.228 0 0 0 -32.532 1.985l-18.583-2.376a5.918 5.918 0 0 0 .377-2.553c.64-3.729 8.5-18.166 15.612-29.586a6 6 0 1 0 -10.187-6.342c-17.308 27.8-17.691 34.67-17.386 37l-44.278-5.66-9-9c13.079-9.805 19.807-21.185 20.015-33.9.4-24.542-24.306-45.682-33.806-52.895a146.624 146.624 0 0 1 11.937-19.29 6 6 0 0 0 -9.493-7.34 160.283 160.283 0 0 0 -15.615 26.1c-10.875 22.464-21.095 55.987-8.228 88.331 1.357 4.838 11.046 36.9 30.348 40.122 6.983 1.157 48.531 7.27 64.744 9.65a42.469 42.469 0 0 0 -.433 5.773c-.135 1.767-.27 3.532-.393 5.262-.174 2.278-.336 4.549-.5 6.822l-44.431 16.642c-4.441-1.273-9-3.149-10.894-4.47.99-6.15 2.692-17.4 2.771-17.92a6 6 0 0 0 -11.865-1.8c-.022.14-2.124 14.04-3.016 19.416-1.516 9.056 11.046 14.179 21.852 16.882a6.013 6.013 0 0 0 3.56-.2l41.1-15.39c-.465 6.938-.852 13.3-1.181 19.366-13.054 24.247-29.559 52.085-33.948 55.612-2.046 1.039-11.643 6.057-17.11 8.919l-17.024-16.25a6 6 0 0 0 -8.287 8.68l20.134 19.22a6 6 0 0 0 6.928.974c5.33-2.792 19.481-10.2 20.949-10.927 2.244-1.122 6-3 23.461-32.972 1.268-2.178 2.518-4.349 3.726-6.465-.186 6.039-.306 11.862-.361 17.537-.072 6.854-.045 13.473.069 19.94l-18.356 50.2-11.265 12.766-26.686.839a6 6 0 0 0 .184 12h.193l29.28-.919a6 6 0 0 0 4.31-2.028l13.73-15.56a6 6 0 0 0 1.136-1.91l8.839-24.175c.579 8.1 1.319 16.068 2.228 23.74.015.126.033.25.056.374.044.238 1.088 5.932 3.006 14.892 1.917 8.922 5.036 22.562 9 36.87 7.027 25.4 14.274 44.288 21.542 56.16 2.052 4.3 19.544 37.871 65.445 39.744h.245c17.562 0 52.034-8.668 57.132-41.438a123.224 123.224 0 0 0 2.849-32.6 5.868 5.868 0 0 0 -.136-.948c4.86-15.573-6.89-27.562-14.389-31.981a6 6 0 0 0 -6.886.56 32.713 32.713 0 0 0 -9.787 31.326 6 6 0 0 0 -.9 3.853c1.607 14.769-.967 25.181-7.651 30.949-6.423 5.54-17.525 6.952-29.7 3.776-4.786-1.248-8.784-4.892-11.886-10.829-6.608-12.654-6.816-31.021-3.215-40.787.818-2.232 1.625-4.869 2.394-7.837 2.3-8.822 4.581-21.321 6.8-37.153 1.327-9.54 2.091-16.527 2.123-16.819.01-.092.018-.183.024-.276.411-6.595.758-13.255 1.07-19.895l7.374 22.315a6.021 6.021 0 0 0 1.2 2.087l13.73 15.56a6 6 0 0 0 4.31 2.028l29.28.919h.193a6 6 0 0 0 .184-12l-26.686-.839-11.2-12.693-16.794-50.824a6.019 6.019 0 0 0 -.4-.931c.13-6.142.227-12.267.267-18.333.04-5.547.036-11.131 0-16.717 1.149 2.143 2.334 4.333 3.536 6.525 15.89 28.971 19.631 30.845 21.884 31.972 1.454.723 15.6 8.129 20.935 10.921a6 6 0 0 0 6.928-.974l20.13-19.22a6 6 0 0 0 -8.287-8.68l-17.017 16.247c-5.457-2.856-15.023-7.859-17.083-8.906-3.881-3.251-17.258-26.526-31.478-54.762-.2-7.235-.465-14.521-.789-21.779l37.878 16.805a6.007 6.007 0 0 0 3.889.336c10.806-2.7 23.369-7.826 21.853-16.872-.893-5.385-3-19.286-3.017-19.426a6 6 0 0 0 -11.865 1.8c.079.521 1.78 11.765 2.772 17.923-1.858 1.307-6.271 3.129-10.71 4.413l-41.472-18.4c-.087-1.617-.17-3.235-.268-4.851l-.01-.178c-.1-1.738-.207-3.468-.319-5.206a42.366 42.366 0 0 0 -.728-7.622c15.357-1.936 52.829-6.688 59.776-7.839 19.285-3.223 28.974-35.285 30.331-40.123zm-109.134 265.111c-12.336 3.037-30.121 2.991-43.615-.143-2.285-8.457-4.255-16.563-5.827-23.414a133.04 133.04 0 0 0 27.63 2.944 119.63 119.63 0 0 0 26.189-2.849c-1.445 9.311-2.928 17.268-4.377 23.462zm7.767-48.778c-.1.863-.649 5.782-1.545 12.507-18.054 4.986-38.564 4.881-58.514-.284-1.237-5.929-1.984-9.9-2.146-10.777-.754-6.383-1.389-12.979-1.911-19.682a162.238 162.238 0 0 0 33.5 3.4 147.358 147.358 0 0 0 31.591-3.21c-.285 6.022-.603 12.058-.975 18.046zm-64.939-30.717c-.577-10.729-.861-21.749-.858-33.393a167.932 167.932 0 0 0 35.179 3.571 152.9 152.9 0 0 0 33.019-3.355c-.143 11.054-.436 22.226-.874 33.379-19.039 5.046-45.612 4.972-66.466-.207zm67.443-45.544c-19.133 4.991-47.28 4.938-68.2-.142.126-8.02.383-16.38.772-25.279a163.356 163.356 0 0 0 34.8 3.632 149.4 149.4 0 0 0 32.463-3.35c.142 8.373.194 16.779.165 25.134zm-1.794-70.965a6 6 0 0 0 .139 2.093c.523 10.169.929 20.47 1.207 30.658a5.923 5.923 0 0 0 -.026.822c-18.926 4.843-45.767 4.771-66.37-.186.462-8.737 1.048-18.058 1.81-28.821a5.982 5.982 0 0 0 .2-2.844c.047-.662.1-1.329.146-1.992a145.706 145.706 0 0 0 32.615 3.69 130.626 130.626 0 0 0 30.279-3.425zm-20.362-41.874h.014a30.9 30.9 0 0 1 17.671 17.836 30.344 30.344 0 0 1 1.946 10.709c0 .13 0 .26.013.389.016.244.029.487.045.731-18.228 4.816-41.331 4.756-61.321-.179.012-.161.023-.32.036-.481s.017-.306.017-.46a30.473 30.473 0 0 1 1.419-9.193 31.063 31.063 0 0 1 14.528-17.628 30.351 30.351 0 0 1 25.632-1.729zm-136.743-30.689-.011-.033c-.027-.1-.063-.2-.1-.293s-.065-.2-.1-.3c0-.011-.007-.022-.011-.032-10.314-25.56-3.758-52.619 4.849-72.626 10.621 8.457 27.352 25.284 27.085 41.638-.168 10.26-7.081 19.729-20.549 28.145-.025.016-.047.034-.072.05-.041.027-.08.057-.121.085a5.884 5.884 0 0 0 -.842.688.288.288 0 0 0 -.027.022c-.014.014-.023.03-.037.044a5.955 5.955 0 0 0 -.7.859c-.023.035-.044.07-.067.105a6.057 6.057 0 0 0 -.483.919c-.02.048-.038.1-.056.145a5.983 5.983 0 0 0 -.286.963c-.01.048-.018.1-.026.146a5.965 5.965 0 0 0 -.1 1.008v.123a5.833 5.833 0 0 0 .1 1.026c.007.04.017.079.025.119a5.933 5.933 0 0 0 .292.985c.018.048.041.094.061.142a5.918 5.918 0 0 0 .429.838c.014.023.031.041.045.063.039.06.085.116.126.175a6.044 6.044 0 0 0 .595.728c.029.031.049.067.079.1l15.562 15.557a6 6 0 0 0 3.483 1.709l64.472 8.241a42.459 42.459 0 0 0 -6.6 10.258c-14.709-2.159-59.156-8.693-66.191-9.859-9.55-1.592-18.153-22.067-20.824-31.738zm224.9 277.279c3.183 2.989 6.809 7.983 5.256 14.358l-8.2.745a21.12 21.12 0 0 1 2.94-15.103zm-55.8 68.7c16.231 4.235 31.017 1.939 40.568-6.3 8.761-7.56 12.855-19.4 12.2-35.242l7.85-.714a113.629 113.629 0 0 1 -2.708 23.1c-.046.187-.084.375-.112.566-1.916 12.774-9.846 21.921-23.57 27.188a69.445 69.445 0 0 1 -21.642 4.3c-40.255-1.715-54.443-31.789-55.019-33.05a5.8 5.8 0 0 0 -.374-.7c-5.819-9.409-11.729-24.109-17.607-43.758a121.182 121.182 0 0 0 18.854 1.443 113.485 113.485 0 0 0 17.294-1.283c-3.573 12.776-2.855 32.96 4.775 47.57 4.665 8.938 11.406 14.777 19.491 16.89zm-5.449-306.16a43.421 43.421 0 0 0 -7.574-10.455l60.9-6.251a6.006 6.006 0 0 0 3.631-1.726l15.559-15.561c.03-.03.05-.067.08-.1a6.016 6.016 0 0 0 .594-.726c.041-.06.087-.115.126-.176.014-.022.031-.04.045-.063a5.918 5.918 0 0 0 .429-.838c.02-.048.043-.094.061-.142a5.933 5.933 0 0 0 .292-.985c.008-.04.018-.079.025-.119a5.824 5.824 0 0 0 .1-1.026c0-.041 0-.082 0-.123a5.965 5.965 0 0 0 -.1-1.008c-.008-.049-.016-.1-.026-.146a5.983 5.983 0 0 0 -.286-.963c-.018-.049-.036-.1-.056-.145a5.974 5.974 0 0 0 -.484-.919c-.022-.035-.043-.07-.066-.105a5.955 5.955 0 0 0 -.7-.859c-.014-.014-.023-.03-.037-.044a.288.288 0 0 0 -.027-.022 5.9 5.9 0 0 0 -.842-.688c-.041-.028-.08-.058-.122-.085-.024-.016-.046-.034-.071-.05-13.459-8.41-20.372-17.873-20.548-28.124-.2-11.766 8.271-23.295 15.417-30.9a113.1 113.1 0 0 1 11.685-10.721c8.6 20 15.138 47.04 4.831 72.584l-.01.029c-.039.1-.072.2-.106.309s-.067.189-.094.285c0 .011-.008.021-.011.033-2.655 9.665-11.237 30.141-20.815 31.74-7.047 1.179-48.63 6.436-61.8 8.095z" fill="#083863"/></svg>