<?xml version="1.0" encoding="iso-8859-1"?>
<!-- Generator: Adobe Illustrator 19.0.0, SVG Export Plug-In . SVG Version: 6.00 Build 0)  -->
<svg version="1.1" id="Capa_1" xmlns="http://www.w3.org/2000/svg" xmlns:xlink="http://www.w3.org/1999/xlink" x="0px" y="0px"
	 viewBox="0 0 455.431 455.431" style="enable-background:new 0 0 455.431 455.431;" xml:space="preserve">
<path style="fill:#D1403F;" d="M405.493,412.764c-69.689,56.889-287.289,56.889-355.556,0c-69.689-56.889-62.578-300.089,0-364.089
	s292.978-64,355.556,0S475.182,355.876,405.493,412.764z"/>
<path style="fill:#E24C4B;" d="M229.138,313.209c-62.578,49.778-132.267,75.378-197.689,76.8
	c-48.356-81.067-38.4-283.022,18.489-341.333c51.2-52.622,211.911-62.578,304.356-29.867
	C377.049,112.676,330.116,232.142,229.138,313.209z"/>
<path style="fill:#FFFFFF;" d="M384.16,247.787V217.92c0-27.022-22.756-49.778-49.778-49.778c-8.533,0-15.644,1.422-21.333,5.689
	v-24.178c0-27.022-22.756-49.778-49.778-49.778c-14.222,0-27.022,5.689-35.556,15.644c-8.533-9.956-21.333-15.644-35.556-15.644
	c-14.222,0-27.022,5.689-35.556,15.644c-8.533-9.956-21.333-15.644-35.556-15.644c-27.022,1.422-49.778,24.178-49.778,51.2
	c0,7.111,5.689,14.222,14.222,14.222c7.111,0,14.222-5.689,14.222-14.222c0-12.8,9.956-21.333,21.333-21.333
	c12.8,0,21.333,9.956,21.333,21.333v120.889c0,7.111,5.689,14.222,14.222,14.222c7.111,0,14.222-5.689,14.222-14.222V151.076
	c0-12.8,9.956-21.333,21.333-21.333c12.8,0,21.333,9.956,21.333,21.333v120.889c0,7.111,5.689,14.222,14.222,14.222
	c7.111,0,14.222-5.689,14.222-14.222V151.076c0-12.8,9.956-21.333,21.333-21.333c12.8,0,21.333,9.956,21.333,21.333v120.889
	c0,18.489,7.111,35.556,17.067,49.778c-7.111,2.844-15.644,4.267-24.178,4.267c-7.111,0-14.222,5.689-14.222,14.222
	c0,7.111,5.689,14.222,14.222,14.222c17.067,0,32.711-4.267,45.511-11.378c12.8,7.111,27.022,11.378,41.244,11.378
	c7.111,0,14.222-5.689,14.222-14.222s-5.689-14.222-14.222-14.222c-5.689,0-11.378-1.422-15.644-2.844
	C371.36,304.676,384.16,277.653,384.16,247.787z M313.049,271.964V217.92c0-12.8,9.956-21.333,21.333-21.333
	c12.8,0,21.333,9.956,21.333,21.333v29.867c0,24.178-11.378,46.933-29.867,61.156C317.316,298.987,313.049,286.187,313.049,271.964z
	"/>
<g>
</g>
<g>
</g>
<g>
</g>
<g>
</g>
<g>
</g>
<g>
</g>
<g>
</g>
<g>
</g>
<g>
</g>
<g>
</g>
<g>
</g>
<g>
</g>
<g>
</g>
<g>
</g>
<g>
</g>
</svg>
